<svg width="110" height="46" viewBox="0 0 110 46" fill="none" xmlns="http://www.w3.org/2000/svg">
<path d="M17.4079 22.0161C16.2084 21.5172 14.5864 21.0276 12.6708 20.5008L12.6709 20.5007L12.659 20.4977C9.43938 19.6684 8.03017 19.2255 6.9543 18.1497C6.48202 17.6774 6.21397 17.0573 6.21397 16.232C6.21397 15.3265 6.67343 14.5231 7.58399 13.916C8.50934 13.2991 9.88908 12.902 11.608 12.902C13.5432 12.902 15.288 13.4635 17.9787 14.8797L18.6131 15.2136L18.9752 14.5949L20.1272 12.6269L20.5079 11.9765L19.8557 11.5989C17.0362 9.96654 14.7953 9.24199 11.944 9.24199C9.02572 9.24199 6.52104 9.93927 4.72352 11.2166C2.90843 12.5065 1.83397 14.3806 1.83397 16.616V17.366H1.91775C2.04549 18.6744 2.50956 19.7604 3.21822 20.6389C4.04591 21.6649 5.17224 22.3655 6.38012 22.8304C7.54164 23.3335 9.07466 23.7756 10.9352 24.2528C14.3048 25.1808 15.8416 25.6666 16.963 26.8711L16.9722 26.8809L16.9816 26.8903C17.4711 27.3798 17.722 28.0745 17.722 29.048C17.722 30.2065 17.2036 31.1627 16.2453 31.8536C15.2674 32.5588 13.8029 33.002 11.944 33.002C9.04929 33.002 6.13971 31.8194 4.42956 29.9776L3.79986 29.2995L3.26686 30.056L1.77886 32.168L1.40705 32.6958L1.87355 33.142C4.25231 35.4173 7.62279 36.566 11.464 36.566C14.5921 36.566 17.2342 35.8474 19.1157 34.4855C21.0203 33.107 22.102 31.0961 22.102 28.664C22.102 26.9221 21.5837 25.4978 20.7136 24.381C19.8521 23.2753 18.6762 22.5093 17.4079 22.0161ZM31.3408 45.158H32.0908V44.408V32.5747C34.467 35.0876 37.8753 36.422 41.8048 36.422C44.4189 36.422 46.8955 35.818 49.124 34.6024L49.124 34.6024L49.1304 34.5989C53.4841 32.1689 56.2348 27.7489 56.2348 22.664C56.2348 20.1725 55.5721 17.8825 54.3561 15.8051L54.3517 15.7975L54.347 15.79C51.8061 11.6738 47.2886 9.14599 42.1408 9.14599C38.1912 9.14599 34.545 10.6575 32.0908 13.2967V10.904V10.154H31.3408H28.4608H27.7108V10.904V44.408V45.158H28.4608H31.3408ZM85.9187 24.806H86.5203L86.6509 24.2187C86.7647 23.7063 86.7647 23.3048 86.7647 23.0986V23.096C86.7647 19.0048 85.4907 15.5122 83.1993 13.0347C80.9126 10.5623 77.6641 9.15766 73.8227 9.14606V9.14599H73.7747V9.14606C65.9733 9.16984 60.4007 14.9906 60.4007 22.904C60.4007 26.7612 61.7907 30.1542 64.3081 32.5818C66.8247 35.0088 70.4163 36.422 74.7347 36.422C78.1748 36.422 81.3277 35.4757 83.6016 33.6669L84.1051 33.2665L83.7859 32.7079L82.6339 30.6919L82.1989 29.9306L81.5142 30.4783C79.5021 32.0881 77.1285 32.858 74.3507 32.858C71.5381 32.858 69.195 31.9529 67.5327 30.4223C66.0374 29.0454 65.0546 27.1276 64.7923 24.806H85.9187ZM92.6515 35V35.75H93.4015H96.2815H97.0315V35V1.68799V0.937988H96.2815H93.4015H92.6515V1.68799V35ZM104.473 35V35.75H105.223H108.103H108.853V35V1.68799V0.937988H108.103H105.223H104.473V1.68799V35ZM41.9488 32.858C36.0796 32.858 32.0908 28.6863 32.0908 23.096C32.0908 17.0302 36.7471 12.758 42.0448 12.758C47.6066 12.758 51.8548 17.1017 51.8548 22.952C51.8548 28.6795 47.6329 32.858 41.9488 32.858ZM82.2436 21.194H64.8854C65.4193 16.1707 69.0392 12.758 73.8707 12.758C76.3646 12.758 78.4031 13.6653 79.8469 15.2339C81.1644 16.6653 82.0275 18.6934 82.2436 21.194Z" fill="white" stroke="white" stroke-width="1.5"/>
</svg>
