<svg width="30" height="30" viewBox="0 0 30 30" fill="none" xmlns="http://www.w3.org/2000/svg">
<path fill-rule="evenodd" clip-rule="evenodd" d="M26.25 12.6879V22.4586C26.25 25.2429 24.0114 27.5 21.25 27.5H8.75C5.98858 27.5 3.75 25.2429 3.75 22.4586V12.6879C3.75 11.1742 4.42456 9.74062 5.58733 8.78315L11.8373 3.63668C13.6779 2.12111 16.3221 2.1211 18.1627 3.63668L24.4127 8.78315C25.5754 9.74062 26.25 11.1742 26.25 12.6879ZM19.0625 21.5625V24.375C19.0625 25.0654 18.5029 25.625 17.8125 25.625H12.1875C11.4971 25.625 10.9375 25.0654 10.9375 24.375V21.5625C10.9375 19.3188 12.7563 17.5 15 17.5C17.2437 17.5 19.0625 19.3188 19.0625 21.5625Z" fill="white"/>
</svg>
