<svg width="277" height="62" viewBox="0 0 277 62" fill="none" xmlns="http://www.w3.org/2000/svg">
<mask id="path-1-inside-1_745_5923" fill="white">
<path fill-rule="evenodd" clip-rule="evenodd" d="M0 31C0 13.8792 13.8792 0 31 0H71.0699C85.4868 0 97.9954 9.95189 101.235 24V24C104.476 38.0481 116.984 48 131.401 48H145.599C160.016 48 172.524 38.0481 175.765 24V24C179.005 9.95189 191.513 0 205.93 0H246C263.121 0 277 13.8792 277 31V31C277 48.1208 263.121 62 246 62H171H167H110H106H31C13.8792 62 0 48.1208 0 31V31Z"/>
</mask>
<path fill-rule="evenodd" clip-rule="evenodd" d="M0 31C0 13.8792 13.8792 0 31 0H71.0699C85.4868 0 97.9954 9.95189 101.235 24V24C104.476 38.0481 116.984 48 131.401 48H145.599C160.016 48 172.524 38.0481 175.765 24V24C179.005 9.95189 191.513 0 205.93 0H246C263.121 0 277 13.8792 277 31V31C277 48.1208 263.121 62 246 62H171H167H110H106H31C13.8792 62 0 48.1208 0 31V31Z" fill="#262626"/>
<path d="M71.0699 -1H31V1H71.0699V-1ZM131.401 49H145.599V47H131.401V49ZM246 -1H205.93V1H246V-1ZM171 63H246V61H171V63ZM171 61H167V63H171V61ZM167 61H110V63H167V61ZM110 61H106V63H110V61ZM31 63H106V61H31V63ZM276 31C276 47.5685 262.569 61 246 61V63C263.673 63 278 48.6731 278 31H276ZM246 1C262.569 1 276 14.4315 276 31H278C278 13.3269 263.673 -1 246 -1V1ZM176.739 24.2247C179.874 10.6304 191.979 1 205.93 1V-1C191.047 -1 178.135 9.27336 174.79 23.7753L176.739 24.2247ZM145.599 49C160.482 49 173.394 38.7266 176.739 24.2247L174.79 23.7753C171.655 37.3696 159.55 47 145.599 47V49ZM100.261 24.2247C103.606 38.7266 116.518 49 131.401 49V47C117.45 47 105.345 37.3696 102.21 23.7753L100.261 24.2247ZM31 -1C13.3269 -1 -1 13.3269 -1 31H1C1 14.4315 14.4315 1 31 1V-1ZM31 61C14.4315 61 1 47.5685 1 31H-1C-1 48.6731 13.3269 63 31 63V61ZM71.0699 1C85.0211 1 97.1256 10.6304 100.261 24.2247L102.21 23.7753C98.8651 9.27336 85.9525 -1 71.0699 -1V1Z" fill="url(#paint0_linear_745_5923)" fill-opacity="0.25" mask="url(#path-1-inside-1_745_5923)"/>
<defs>
<linearGradient id="paint0_linear_745_5923" x1="139" y1="0" x2="139" y2="62" gradientUnits="userSpaceOnUse">
<stop stop-color="#AAA9F9"/>
<stop offset="0.0001" stop-color="#AAA9F9"/>
<stop offset="0.557292" stop-color="#EDB7C3"/>
<stop offset="1" stop-opacity="0"/>
<stop offset="1" stop-opacity="0"/>
</linearGradient>
</defs>
</svg>
