<svg width="53" height="53" viewBox="0 0 53 53" fill="none" xmlns="http://www.w3.org/2000/svg">
<circle cx="26.5" cy="26.5" r="26.5" fill="url(#paint0_linear_756_5957)"/>
<path d="M16.9883 26.5391C16.9883 25.8242 17.5859 25.2266 18.3008 25.2266H25.4844V18.043C25.4844 17.3281 26.082 16.7305 26.7969 16.7305C27.5117 16.7305 28.1094 17.3281 28.1094 18.043V25.2266H35.293C36.0078 25.2266 36.6055 25.8242 36.6055 26.5391C36.6055 27.2656 36.0078 27.8516 35.293 27.8516H28.1094V35.0352C28.1094 35.75 27.5117 36.3477 26.7969 36.3477C26.082 36.3477 25.4844 35.75 25.4844 35.0352V27.8516H18.3008C17.5859 27.8516 16.9883 27.2656 16.9883 26.5391Z" fill="#010101"/>
<defs>
<linearGradient id="paint0_linear_756_5957" x1="26" y1="53" x2="26" y2="-1.13441e-08" gradientUnits="userSpaceOnUse">
<stop stop-color="#8D69E1"/>
<stop offset="0.510417" stop-color="#E190A2"/>
<stop offset="1" stop-color="#FAEFEE"/>
</linearGradient>
</defs>
</svg>
