<svg width="30" height="30" viewBox="0 0 30 30" fill="none" xmlns="http://www.w3.org/2000/svg">
<path d="M19.25 8.75C19.25 11.0972 17.3472 13 15 13V14.5C18.1756 14.5 20.75 11.9256 20.75 8.75H19.25ZM15 13C12.6528 13 10.75 11.0972 10.75 8.75H9.25C9.25 11.9256 11.8244 14.5 15 14.5V13ZM10.75 8.75C10.75 6.40279 12.6528 4.5 15 4.5V3C11.8244 3 9.25 5.57436 9.25 8.75H10.75ZM15 4.5C17.3472 4.5 19.25 6.40279 19.25 8.75H20.75C20.75 5.57436 18.1756 3 15 3V4.5ZM23 21.875C23 22.646 22.3555 23.5459 20.8518 24.2978C19.3929 25.0272 17.3251 25.5 15 25.5V27C17.5074 27 19.8146 26.4934 21.5226 25.6394C23.1858 24.8078 24.5 23.5202 24.5 21.875H23ZM15 25.5C12.6749 25.5 10.6071 25.0272 9.14823 24.2978C7.64452 23.5459 7 22.646 7 21.875H5.5C5.5 23.5202 6.81424 24.8078 8.47741 25.6394C10.1854 26.4934 12.4926 27 15 27V25.5ZM7 21.875C7 21.104 7.64452 20.2041 9.14823 19.4522C10.6071 18.7228 12.6749 18.25 15 18.25V16.75C12.4926 16.75 10.1854 17.2566 8.47741 18.1106C6.81424 18.9422 5.5 20.2298 5.5 21.875H7ZM15 18.25C17.3251 18.25 19.3929 18.7228 20.8518 19.4522C22.3555 20.2041 23 21.104 23 21.875H24.5C24.5 20.2298 23.1858 18.9422 21.5226 18.1106C19.8146 17.2566 17.5074 16.75 15 16.75V18.25Z" fill="white"/>
</svg>
