<svg width="183" height="134" viewBox="0 0 183 134" fill="none" xmlns="http://www.w3.org/2000/svg">
<g filter="url(#filter0_d_638_1091)">
<rect x="25.9781" y="75.2336" width="102.46" height="34.5371" rx="17.2686" transform="rotate(7 25.9781 75.2336)" fill="#232323" shape-rendering="crispEdges"/>
<path d="M60.92 98.3385C60.645 100.578 58.8028 101.96 55.9713 101.612C53.1558 101.266 51.6846 99.4942 51.9596 97.2546L51.9851 97.0466L54.3207 97.3334L54.2873 97.6053C54.1577 98.6612 54.8851 99.4812 56.2129 99.6442C57.5407 99.8073 58.4449 99.1876 58.5745 98.1318C58.6885 97.2039 58.1751 96.4914 57.0208 96.106L55.5244 95.5975C53.5278 94.9302 52.4035 93.6392 52.6569 91.5756C52.8985 89.6079 54.5405 88.137 57.34 88.4807C60.1395 88.8245 61.391 90.6669 61.1533 92.6026L61.1317 92.7785L58.7801 92.4898L58.8017 92.3138C58.9176 91.37 58.3283 90.6156 57.0965 90.4644C55.8487 90.3112 55.1103 90.9025 54.9944 91.8464C54.8785 92.7902 55.3815 93.3229 56.5658 93.7281L58.0463 94.2346C60.1049 94.9258 61.1694 96.3069 60.92 98.3385ZM65.2608 93.3505L65.0899 94.7422C65.5296 93.8057 66.52 93.2778 67.7678 93.431C69.9115 93.6942 71.1065 95.3348 70.7058 98.5983C70.3031 101.878 68.7467 103.181 66.6031 102.917C65.3553 102.764 64.522 102.012 64.3219 100.997L63.6678 106.324L61.4442 106.051L63.0372 93.0775L65.2608 93.3505ZM66.2311 101.053C67.6549 101.228 68.2524 100.197 68.4822 98.3252C68.71 96.4696 68.3777 95.3408 66.954 95.166C65.5302 94.9912 64.9347 96.006 64.7069 97.8617C64.477 99.7334 64.8074 100.878 66.2311 101.053ZM80.086 100.416L74.103 99.6812C73.9664 101.191 74.4561 102.095 75.6879 102.247C76.5838 102.357 77.2607 102.001 77.5009 101.235L79.7565 101.512C79.2188 103.378 77.6635 104.275 75.4719 104.006C72.7204 103.668 71.5747 101.758 71.944 98.7503C72.3093 95.7748 73.8851 94.1821 76.6366 94.5199C79.4042 94.8597 80.5319 96.7844 80.1665 99.7599L80.086 100.416ZM76.4206 96.2796C75.2208 96.1323 74.5506 96.8295 74.3236 98.1494L78.0189 98.6031C78.086 97.2635 77.6044 96.425 76.4206 96.2796ZM83.3835 104.75L81.1599 104.477L82.7136 91.8235L84.9372 92.0966L83.3835 104.75ZM87.5077 105.257L85.2841 104.984L86.8378 92.3299L89.0614 92.603L87.5077 105.257ZM89.4207 102.877L89.4482 102.653L91.6718 102.926L91.6404 103.182C91.5579 103.854 92.0827 104.341 92.9626 104.449C93.8744 104.561 94.4713 104.196 94.5499 103.556C94.6265 102.932 94.3619 102.575 93.4716 102.287L92.5794 102.015C90.607 101.415 89.7493 100.466 89.9379 98.9299C90.1304 97.3621 91.6015 96.3574 93.7611 96.6226C95.9527 96.8916 97.1149 98.1386 96.9166 99.7543L96.895 99.9302L94.6713 99.6572L94.693 99.4812C94.7617 98.9213 94.4008 98.4224 93.5529 98.3183C92.7211 98.2161 92.2521 98.597 92.1873 99.1249C92.1126 99.7328 92.4472 100.05 93.3074 100.318L94.2156 100.592C96.282 101.219 96.9778 102.165 96.7794 103.781C96.585 105.365 95.0279 106.407 92.7563 106.129C90.4527 105.846 89.2243 104.477 89.4207 102.877Z" fill="#ADADAD"/>
<rect x="26.5006" y="75.9023" width="101.26" height="33.3371" rx="16.6686" transform="rotate(7 26.5006 75.9023)" stroke="url(#paint0_linear_638_1091)" stroke-opacity="0.4" stroke-width="1.2" shape-rendering="crispEdges"/>
</g>
<g filter="url(#filter1_d_638_1091)">
<rect x="43.1393" y="49.3364" width="128.939" height="34.5371" rx="17.2686" transform="rotate(-7 43.1393 49.3364)" fill="#010101"/>
<path d="M76.4983 68.9103L76.7568 67.7094L72.2357 59.0574L74.5393 58.7746L77.5147 64.8884L78.8586 58.2442L81.1782 57.9594L78.6349 69.1189C78.1929 71.0731 77.4121 71.5912 75.8763 71.7797C75.6044 71.8131 75.2045 71.8622 74.9446 71.8616L74.7305 70.118L75.4024 70.0355C75.9463 69.9687 76.3226 69.7276 76.4983 68.9103ZM90.5976 61.3821C90.9669 64.3895 89.8372 66.2982 87.0697 66.638C84.3182 66.9759 82.7444 65.3992 82.3751 62.3917C82.0097 59.4162 83.1534 57.4896 85.905 57.1517C88.6725 56.8119 90.2323 58.4066 90.5976 61.3821ZM84.5987 62.1187C84.8285 63.9903 85.426 65.0212 86.8497 64.8464C88.2895 64.6696 88.6038 63.5268 88.374 61.6551C88.1462 59.7994 87.5667 58.7826 86.1269 58.9594C84.7032 59.1342 84.3708 60.263 84.5987 62.1187ZM92.1982 62.4034L91.497 56.6924L93.7046 56.4214L94.4019 62.1004C94.5512 63.3162 95.1338 63.8292 96.0616 63.7153C97.2134 63.5739 97.9252 62.6258 97.7346 61.0741L97.112 56.003L99.3356 55.73L100.445 64.7684L98.2218 65.0414L98.0332 63.5057C97.8269 64.6027 96.9855 65.4205 95.6897 65.5796C93.7221 65.8212 92.4791 64.691 92.1982 62.4034ZM105.849 56.5865C104.362 56.7692 103.63 57.8171 103.854 59.6408L104.423 64.28L102.2 64.553L101.09 55.5146L103.313 55.2416L103.514 56.8733C103.666 55.6042 104.326 54.8899 105.701 54.721C105.973 54.6876 106.233 54.6882 106.431 54.7126L106.621 56.5242C106.475 56.5259 106.169 56.5472 105.849 56.5865ZM120.764 57.6781C121.133 60.6856 120.004 62.5942 117.236 62.9341C114.485 63.2719 112.911 61.6952 112.542 58.6877C112.176 55.7122 113.32 53.7856 116.072 53.4477C118.839 53.1079 120.399 54.7026 120.764 57.6781ZM114.765 58.4147C114.995 60.2863 115.593 61.3172 117.016 61.1424C118.456 60.9656 118.77 59.8228 118.541 57.9511C118.313 56.0954 117.733 55.0786 116.293 55.2554C114.87 55.4302 114.537 56.559 114.765 58.4147ZM126.993 52.3341L129.056 52.0807L131.799 58.4179L132.848 51.6152L135.103 51.3382L133.334 60.7302L131.046 61.0111L128.335 54.67L127.223 61.4805L124.935 61.7614L120.946 53.0766L123.202 52.7996L125.864 59.1466L126.993 52.3341ZM144.458 53.5835L145.157 59.2785L142.933 59.5515L142.238 53.8885C142.089 52.6727 141.522 52.1577 140.594 52.2716C139.443 52.4131 138.729 53.3451 138.921 54.9128L139.542 59.9679L137.318 60.2409L136.209 51.2025L138.432 50.9295L138.621 52.4652C138.827 51.3682 139.668 50.5504 140.964 50.3913C142.932 50.1497 144.175 51.2799 144.458 53.5835Z" fill="#ADADAD"/>
<rect x="43.8079" y="49.8588" width="127.739" height="33.3371" rx="16.6686" transform="rotate(-7 43.8079 49.8588)" stroke="url(#paint1_linear_638_1091)" stroke-opacity="0.4" stroke-width="1.2"/>
</g>
<g filter="url(#filter2_d_638_1091)">
<rect x="23.5645" y="2" width="86.3428" height="34.5371" rx="17.2686" transform="rotate(10 23.5645 2)" fill="#232323"/>
<path d="M49.4826 29.2149L47.0859 28.7923L53.363 16.9537L56.0296 17.4238L57.8792 30.6954L55.4824 30.2728L55.1739 27.5672L50.682 26.7751L49.4826 29.2149ZM54.9496 25.4982L54.2905 19.4903L51.6005 24.9077L54.9496 25.4982ZM64.5812 31.8772L64.8247 30.4963C64.3365 31.4085 63.3198 31.8839 62.0818 31.6656C59.9549 31.2906 58.8473 29.5896 59.421 26.3358C59.992 23.0978 61.6145 21.8782 63.7414 22.2532C64.9795 22.4715 65.7723 23.266 65.919 24.2902L66.795 19.3221L69.0013 19.7111L66.7875 32.2662L64.5812 31.8772ZM62.9825 29.9914C64.411 30.2433 65.0458 29.2424 65.3732 27.3853C65.6979 25.5441 65.441 24.4023 64.0124 24.1504C62.5998 23.9013 61.952 24.8836 61.6273 26.7248C61.2999 28.5819 61.5699 29.7423 62.9825 29.9914ZM74.2225 33.5772L74.4659 32.1963C73.9778 33.1085 72.9611 33.5839 71.723 33.3656C69.5961 32.9906 68.4886 31.2896 69.0623 28.0358C69.6333 24.7978 71.2558 23.5782 73.3827 23.9532C74.6207 24.1716 75.4135 24.966 75.5603 25.9902L76.4363 21.0221L78.6425 21.4111L76.4287 33.9662L74.2225 33.5772ZM72.6238 31.6915C74.0523 31.9433 74.687 30.9424 75.0145 29.0853C75.3392 27.2441 75.0822 26.1023 73.6537 25.8504C72.2411 25.6013 71.5933 26.5836 71.2686 28.4248C70.9411 30.2819 71.2111 31.4424 72.6238 31.6915Z" fill="#ADADAD"/>
<rect x="24.0512" y="2.69507" width="85.1428" height="33.3371" rx="16.6686" transform="rotate(10 24.0512 2.69507)" stroke="url(#paint2_linear_638_1091)" stroke-opacity="0.4" stroke-width="1.2"/>
</g>
<g filter="url(#filter3_d_638_1091)">
<path fill-rule="evenodd" clip-rule="evenodd" d="M151.998 51.4243C152.952 40.0336 144.358 29.9931 132.768 28.979C144.384 29.9953 154.611 21.5596 155.61 10.1375C154.656 21.5282 163.25 31.5688 174.84 32.5828C163.224 31.5665 152.997 40.0023 151.998 51.4243Z" fill="#444444"/>
</g>
<g filter="url(#filter4_d_638_1091)">
<path fill-rule="evenodd" clip-rule="evenodd" d="M30.558 94.3878C26.052 86.6494 16.0253 84.0677 8.13195 88.625C16.043 84.0576 18.8153 74.0488 14.3242 66.27C18.83 74.0085 28.8568 76.59 36.7502 72.0328C28.839 76.6003 26.0669 86.609 30.558 94.3878Z" fill="#ADADAD"/>
</g>
<g filter="url(#filter5_d_638_1091)">
<path fill-rule="evenodd" clip-rule="evenodd" d="M147.541 105.491C150.768 96.5234 146.013 86.5829 136.898 83.2652C146.034 86.5903 156.09 82.0035 159.36 73.0206C156.133 81.988 160.888 91.9286 170.003 95.2462C160.867 91.9211 150.811 96.5079 147.541 105.491Z" fill="#F3F3F3" fill-opacity="0.15" shape-rendering="crispEdges"/>
</g>
<g opacity="0.7" filter="url(#filter6_d_638_1091)">
<path fill-rule="evenodd" clip-rule="evenodd" d="M135.87 119.837C136.701 115.019 133.414 110.421 128.514 109.557C133.425 110.423 138.097 107.21 138.948 102.381C138.117 107.199 141.404 111.797 146.304 112.661C141.393 111.795 136.722 115.008 135.87 119.837Z" fill="#F3F3F3" fill-opacity="0.15" shape-rendering="crispEdges"/>
</g>
<defs>
<filter id="filter0_d_638_1091" x="12.5593" y="70.6287" width="124.325" height="65.1861" filterUnits="userSpaceOnUse" color-interpolation-filters="sRGB">
<feFlood flood-opacity="0" result="BackgroundImageFix"/>
<feColorMatrix in="SourceAlpha" type="matrix" values="0 0 0 0 0 0 0 0 0 0 0 0 0 0 0 0 0 0 127 0" result="hardAlpha"/>
<feOffset dy="4.60495"/>
<feGaussianBlur stdDeviation="4.60495"/>
<feComposite in2="hardAlpha" operator="out"/>
<feColorMatrix type="matrix" values="0 0 0 0 0 0 0 0 0 0 0 0 0 0 0 0 0 0 0.75 0"/>
<feBlend mode="normal" in2="BackgroundImageFix" result="effect1_dropShadow_638_1091"/>
<feBlend mode="normal" in="SourceGraphic" in2="effect1_dropShadow_638_1091" result="shape"/>
</filter>
<filter id="filter1_d_638_1091" x="33.9294" y="29.0179" width="150.606" height="68.4132" filterUnits="userSpaceOnUse" color-interpolation-filters="sRGB">
<feFlood flood-opacity="0" result="BackgroundImageFix"/>
<feColorMatrix in="SourceAlpha" type="matrix" values="0 0 0 0 0 0 0 0 0 0 0 0 0 0 0 0 0 0 127 0" result="hardAlpha"/>
<feOffset dy="4.60495"/>
<feGaussianBlur stdDeviation="4.60495"/>
<feComposite in2="hardAlpha" operator="out"/>
<feColorMatrix type="matrix" values="0 0 0 0 0 0 0 0 0 0 0 0 0 0 0 0 0 0 0.75 0"/>
<feBlend mode="normal" in2="BackgroundImageFix" result="effect1_dropShadow_638_1091"/>
<feBlend mode="normal" in="SourceGraphic" in2="effect1_dropShadow_638_1091" result="shape"/>
</filter>
<filter id="filter2_d_638_1091" x="8.3573" y="-2.60495" width="109.448" height="67.4254" filterUnits="userSpaceOnUse" color-interpolation-filters="sRGB">
<feFlood flood-opacity="0" result="BackgroundImageFix"/>
<feColorMatrix in="SourceAlpha" type="matrix" values="0 0 0 0 0 0 0 0 0 0 0 0 0 0 0 0 0 0 127 0" result="hardAlpha"/>
<feOffset dy="4.60495"/>
<feGaussianBlur stdDeviation="4.60495"/>
<feComposite in2="hardAlpha" operator="out"/>
<feColorMatrix type="matrix" values="0 0 0 0 0 0 0 0 0 0 0 0 0 0 0 0 0 0 0.75 0"/>
<feBlend mode="normal" in2="BackgroundImageFix" result="effect1_dropShadow_638_1091"/>
<feBlend mode="normal" in="SourceGraphic" in2="effect1_dropShadow_638_1091" result="shape"/>
</filter>
<filter id="filter3_d_638_1091" x="126.457" y="6.98221" width="54.6934" height="53.9078" filterUnits="userSpaceOnUse" color-interpolation-filters="sRGB">
<feFlood flood-opacity="0" result="BackgroundImageFix"/>
<feColorMatrix in="SourceAlpha" type="matrix" values="0 0 0 0 0 0 0 0 0 0 0 0 0 0 0 0 0 0 127 0" result="hardAlpha"/>
<feOffset dy="3.15524"/>
<feGaussianBlur stdDeviation="3.15524"/>
<feComposite in2="hardAlpha" operator="out"/>
<feColorMatrix type="matrix" values="0 0 0 0 0 0 0 0 0 0 0 0 0 0 0 0 0 0 0.75 0"/>
<feBlend mode="normal" in2="BackgroundImageFix" result="effect1_dropShadow_638_1091"/>
<feBlend mode="normal" in="SourceGraphic" in2="effect1_dropShadow_638_1091" result="shape"/>
</filter>
<filter id="filter4_d_638_1091" x="3.18833" y="63.7982" width="38.5055" height="38.0049" filterUnits="userSpaceOnUse" color-interpolation-filters="sRGB">
<feFlood flood-opacity="0" result="BackgroundImageFix"/>
<feColorMatrix in="SourceAlpha" type="matrix" values="0 0 0 0 0 0 0 0 0 0 0 0 0 0 0 0 0 0 127 0" result="hardAlpha"/>
<feOffset dy="2.47182"/>
<feGaussianBlur stdDeviation="2.47182"/>
<feComposite in2="hardAlpha" operator="out"/>
<feColorMatrix type="matrix" values="0 0 0 0 0 0 0 0 0 0 0 0 0 0 0 0 0 0 0.75 0"/>
<feBlend mode="normal" in2="BackgroundImageFix" result="effect1_dropShadow_638_1091"/>
<feBlend mode="normal" in="SourceGraphic" in2="effect1_dropShadow_638_1091" result="shape"/>
</filter>
<filter id="filter5_d_638_1091" x="131.955" y="70.5487" width="42.9921" height="42.3577" filterUnits="userSpaceOnUse" color-interpolation-filters="sRGB">
<feFlood flood-opacity="0" result="BackgroundImageFix"/>
<feColorMatrix in="SourceAlpha" type="matrix" values="0 0 0 0 0 0 0 0 0 0 0 0 0 0 0 0 0 0 127 0" result="hardAlpha"/>
<feOffset dy="2.47182"/>
<feGaussianBlur stdDeviation="2.47182"/>
<feComposite in2="hardAlpha" operator="out"/>
<feColorMatrix type="matrix" values="0 0 0 0 0 0 0 0 0 0 0 0 0 0 0 0 0 0 0.75 0"/>
<feBlend mode="normal" in2="BackgroundImageFix" result="effect1_dropShadow_638_1091"/>
<feBlend mode="normal" in="SourceGraphic" in2="effect1_dropShadow_638_1091" result="shape"/>
</filter>
<filter id="filter6_d_638_1091" x="123.57" y="99.9095" width="27.6775" height="27.3426" filterUnits="userSpaceOnUse" color-interpolation-filters="sRGB">
<feFlood flood-opacity="0" result="BackgroundImageFix"/>
<feColorMatrix in="SourceAlpha" type="matrix" values="0 0 0 0 0 0 0 0 0 0 0 0 0 0 0 0 0 0 127 0" result="hardAlpha"/>
<feOffset dy="2.47182"/>
<feGaussianBlur stdDeviation="2.47182"/>
<feComposite in2="hardAlpha" operator="out"/>
<feColorMatrix type="matrix" values="0 0 0 0 0 0 0 0 0 0 0 0 0 0 0 0 0 0 0.75 0"/>
<feBlend mode="normal" in2="BackgroundImageFix" result="effect1_dropShadow_638_1091"/>
<feBlend mode="normal" in="SourceGraphic" in2="effect1_dropShadow_638_1091" result="shape"/>
</filter>
<linearGradient id="paint0_linear_638_1091" x1="77.2082" y1="75.2336" x2="77.2082" y2="109.771" gradientUnits="userSpaceOnUse">
<stop stop-color="#ADADAD"/>
<stop offset="1" stop-color="#ADADAD" stop-opacity="0.5"/>
</linearGradient>
<linearGradient id="paint1_linear_638_1091" x1="107.609" y1="49.3364" x2="107.609" y2="83.8735" gradientUnits="userSpaceOnUse">
<stop stop-color="#ADADAD"/>
<stop offset="1" stop-color="#ADADAD" stop-opacity="0.5"/>
</linearGradient>
<linearGradient id="paint2_linear_638_1091" x1="66.7359" y1="2" x2="66.7359" y2="36.5371" gradientUnits="userSpaceOnUse">
<stop stop-color="#ADADAD"/>
<stop offset="1" stop-color="#ADADAD" stop-opacity="0.5"/>
</linearGradient>
</defs>
</svg>
