<svg width="18" height="18" viewBox="0 0 18 18" fill="none" xmlns="http://www.w3.org/2000/svg">
<path fill-rule="evenodd" clip-rule="evenodd" d="M15.6883 0.677084C14.7855 -0.225695 13.3218 -0.225695 12.419 0.677084L10.9697 2.12639C11.0261 2.24018 11.087 2.35989 11.1524 2.48403C11.5922 3.31945 12.2095 4.31082 12.9493 5.05069C13.6892 5.79057 14.6806 6.40786 15.516 6.84767C15.6401 6.91302 15.7598 6.97394 15.8736 7.03028L17.3229 5.58096C18.2257 4.67818 18.2257 3.21449 17.3229 2.31171L15.6883 0.677084ZM14.7595 8.14441C13.8777 7.67594 12.7642 6.98687 11.8887 6.11135C11.0131 5.23582 10.3241 4.12234 9.8556 3.24053L4.15616 8.93996C3.80248 9.29364 3.57305 9.7525 3.50231 10.2477L3.01193 13.6804C2.90295 14.4432 3.5568 15.097 4.31963 14.9881L7.75234 14.4977C8.2475 14.4269 8.70635 14.1975 9.06004 13.8438L14.7595 8.14441Z" fill="white"/>
<path fill-rule="evenodd" clip-rule="evenodd" d="M0 17.25C0 16.8358 0.335786 16.5 0.75 16.5H17.25C17.6642 16.5 18 16.8358 18 17.25C18 17.6642 17.6642 18 17.25 18H0.75C0.335786 18 0 17.6642 0 17.25Z" fill="white"/>
</svg>
