<svg width="30" height="30" viewBox="0 0 30 30" fill="none" xmlns="http://www.w3.org/2000/svg">
<path fill-rule="evenodd" clip-rule="evenodd" d="M11.7578 3.61325C12.2215 2.91775 13.0021 2.5 13.838 2.5H16.162C16.9979 2.5 17.7785 2.91775 18.2422 3.61325L19.375 5.3125H24.0625C24.5803 5.3125 25 5.73223 25 6.25C25 6.76777 24.5803 7.1875 24.0625 7.1875H5.9375C5.41973 7.1875 5 6.76777 5 6.25C5 5.73223 5.41973 5.3125 5.9375 5.3125H10.625L11.7578 3.61325ZM18.75 27.5H11.25C8.48858 27.5 6.25 25.2614 6.25 22.5V8.75H23.75V22.5C23.75 25.2614 21.5114 27.5 18.75 27.5ZM12.5 12.8125C13.0178 12.8125 13.4375 13.2322 13.4375 13.75V22.5C13.4375 23.0178 13.0178 23.4375 12.5 23.4375C11.9822 23.4375 11.5625 23.0178 11.5625 22.5L11.5625 13.75C11.5625 13.2322 11.9822 12.8125 12.5 12.8125ZM17.5 12.8125C18.0178 12.8125 18.4375 13.2322 18.4375 13.75V22.5C18.4375 23.0178 18.0178 23.4375 17.5 23.4375C16.9822 23.4375 16.5625 23.0178 16.5625 22.5V13.75C16.5625 13.2322 16.9822 12.8125 17.5 12.8125Z" fill="white"/>
</svg>
